<?xml version="1.0" standalone="no"?>
<!DOCTYPE svg PUBLIC "-//W3C//DTD SVG 20010904//EN"
 "http://www.w3.org/TR/2001/REC-SVG-20010904/DTD/svg10.dtd">
<svg version="1.0" xmlns="http://www.w3.org/2000/svg"
 width="923.000000pt" height="743.000000pt" viewBox="0 0 923.000000 743.000000"
 preserveAspectRatio="xMidYMid meet">

<g transform="translate(0.000000,743.000000) scale(0.100000,-0.100000)"
fill="#000000" stroke="none">
<path d="M6828 5821 l-28 -6 75 -150 c42 -82 74 -141 72 -130 -11 56 -81 295
-86 294 -3 -1 -18 -4 -33 -8z"/>
<path d="M3290 5770 c-8 -5 -42 -7 -76 -4 -74 8 -113 -9 -148 -64 -13 -21 -35
-46 -49 -55 -28 -18 -39 -47 -57 -154 -11 -62 -11 -75 2 -95 8 -13 18 -34 21
-48 8 -31 62 -69 88 -63 20 6 20 6 0 27 -12 12 -21 33 -21 47 0 13 -9 33 -21
42 -13 12 -19 27 -17 44 5 39 22 38 38 -3 24 -60 39 -59 94 2 38 41 56 54 78
54 25 0 28 -3 28 -33 0 -39 15 -57 47 -57 17 0 28 9 38 33 11 26 15 29 20 15
4 -10 12 -18 17 -18 6 0 8 6 5 14 -3 7 0 19 6 26 9 10 8 11 -9 6 -11 -3 -28 0
-40 9 -10 8 -37 15 -59 15 -54 0 -68 11 -59 44 8 34 37 50 63 36 11 -5 30 -10
43 -10 13 -1 35 -1 49 -2 33 0 54 -35 43 -69 -4 -13 -6 -44 -5 -68 2 -40 0
-43 -18 -38 -12 3 -19 1 -15 -4 11 -19 43 -8 73 26 35 40 38 60 17 110 -13 31
-13 39 0 70 13 33 13 39 -3 66 -14 23 -24 29 -41 26 -15 -3 -26 2 -33 14 -5
11 -19 19 -29 19 -15 0 -20 7 -20 25 0 27 -22 33 -50 15z m21 -280 c16 0 10
-60 -6 -66 -21 -8 -45 14 -45 41 0 27 10 37 28 30 7 -3 18 -5 23 -5z"/>
<path d="M3280 5470 c0 -5 5 -10 10 -10 6 0 10 5 10 10 0 6 -4 10 -10 10 -5 0
-10 -4 -10 -10z"/>
<path d="M5747 5720 c-16 -12 -37 -20 -53 -18 -22 2 -29 -2 -34 -22 -3 -14
-18 -31 -33 -38 -56 -27 -65 -65 -42 -179 8 -35 25 -45 25 -14 0 10 5 32 11
49 l11 32 30 -22 c28 -19 35 -20 72 -9 46 14 47 14 96 5 49 -8 80 -25 80 -43
0 -9 11 -33 25 -53 14 -20 25 -48 25 -62 0 -37 28 -33 42 4 8 24 13 28 23 20
9 -8 15 -8 20 -1 9 15 7 135 -4 193 -2 14 -63 78 -74 78 -5 0 -3 -8 5 -17 8
-10 18 -25 22 -33 4 -8 -28 22 -71 68 -70 74 -82 82 -114 82 -21 0 -47 -9 -62
-20z"/>
<path d="M5050 5592 c0 -5 7 -13 16 -16 10 -4 14 -1 12 6 -5 15 -28 23 -28 10z"/>
<path d="M6593 5523 c37 -2 97 -2 135 0 37 2 6 3 -68 3 -74 0 -105 -1 -67 -3z"/>
<path d="M5075 5443 c-24 -23 -14 -73 41 -213 97 -243 164 -338 247 -347 l44
-5 7 45 c5 34 15 53 37 71 35 30 35 33 7 56 l-23 18 45 41 c52 47 41 52 -31
15 -28 -14 -52 -24 -54 -22 -1 2 -19 42 -40 90 -32 75 -47 97 -105 150 -37 35
-75 75 -85 91 -20 32 -64 37 -90 10z"/>
<path d="M5670 5440 c0 -5 7 -10 16 -10 8 0 12 5 9 10 -3 6 -10 10 -16 10 -5
0 -9 -4 -9 -10z"/>
<path d="M5765 5420 c3 -5 15 -10 26 -10 11 0 17 5 14 10 -3 6 -15 10 -26 10
-11 0 -17 -4 -14 -10z"/>
<path d="M5776 5391 c-4 -5 -2 -12 3 -15 5 -4 12 -2 15 3 4 5 2 12 -3 15 -5 4
-12 2 -15 -3z"/>
<path d="M5400 5345 c0 -7 11 -15 25 -17 32 -7 32 4 0 19 -20 9 -25 8 -25 -2z"/>
<path d="M5728 5303 c7 -3 16 -2 19 1 4 3 -2 6 -13 5 -11 0 -14 -3 -6 -6z"/>
<path d="M3090 5225 c-11 -20 -21 -25 -51 -25 -23 0 -39 -5 -43 -15 -3 -8 -12
-15 -19 -15 -8 0 -61 -22 -119 -50 -58 -27 -121 -51 -139 -53 -64 -8 -71 -15
-67 -66 3 -25 8 -54 12 -63 6 -13 4 -18 -8 -18 -24 0 -19 -18 12 -50 37 -36
90 -47 129 -26 66 36 115 57 121 52 3 -4 -1 -68 -11 -143 -20 -170 -21 -168
85 -160 78 6 91 1 70 -29 -12 -18 -52 -36 -68 -30 -22 9 -17 -4 21 -45 19 -22
35 -46 35 -54 0 -22 -27 -18 -44 6 -18 26 -64 60 -51 38 5 -8 21 -31 38 -51
25 -33 26 -39 12 -44 -10 -4 -26 3 -42 17 l-26 24 12 -23 c7 -13 10 -31 6 -39
-5 -13 -14 -9 -47 23 l-41 39 28 -38 c21 -28 25 -41 17 -49 -9 -9 -18 -6 -35
10 -36 34 -32 41 -73 -109 -3 -12 1 -16 13 -15 11 0 17 -5 14 -14 -6 -26 -20
-272 -21 -358 l0 -83 103 3 102 3 2 75 c1 41 5 89 8 105 3 17 7 38 9 48 4 30
36 61 49 48 6 -6 19 -11 28 -11 27 0 31 -30 15 -112 -8 -41 -12 -94 -9 -117
l6 -41 128 0 129 0 1 58 c0 31 0 75 -1 98 -1 22 8 64 20 94 14 35 19 65 16 85
-5 26 -1 36 29 63 l34 33 -4 132 c-15 444 -16 414 7 429 23 15 24 24 10 163
-12 118 -42 180 -109 223 -26 17 -61 36 -77 42 -27 10 -28 9 -22 -14 3 -14 2
-27 -3 -31 -6 -3 12 -51 40 -108 41 -84 51 -117 59 -187 15 -127 23 -459 13
-505 l-9 -40 -60 3 c-32 2 -61 6 -63 8 -2 2 4 41 15 86 16 69 19 122 19 308
l0 225 -35 107 c-34 104 -36 106 -72 117 -26 8 -38 18 -38 30 0 9 -10 27 -23
39 l-24 22 -13 -25z"/>
<path d="M5690 5206 c24 -25 75 -37 96 -22 15 11 11 14 -27 19 -25 3 -54 9
-64 13 -18 6 -19 5 -5 -10z"/>
<path d="M5595 5170 c-36 -14 -116 -203 -138 -327 -37 -201 -67 -387 -77 -483
-7 -58 -16 -119 -22 -137 -16 -56 -13 -114 9 -132 14 -12 20 -30 21 -66 1 -27
5 -96 8 -152 l6 -103 325 0 325 0 -3 38 c-1 20 2 45 6 55 4 10 2 58 -4 108 -6
49 -9 94 -6 99 4 6 0 10 -8 10 -9 0 -18 21 -25 63 -7 34 -23 98 -38 142 -25
77 -26 86 -20 242 7 169 11 196 30 190 20 -7 35 -51 56 -177 22 -125 45 -200
61 -200 5 0 8 5 6 11 -4 19 51 52 110 65 52 11 54 12 21 13 -37 1 -37 1 -58
69 -11 37 -29 116 -40 175 -26 142 -51 186 -169 298 -93 88 -94 90 -73 105 12
8 20 20 17 25 -4 5 3 9 14 9 12 0 21 5 21 10 0 23 -37 7 -80 -35 -48 -47 -122
-77 -187 -75 -29 1 -33 -3 -33 -24 0 -14 -23 -93 -50 -175 -28 -83 -54 -167
-60 -188 -9 -35 -9 -34 -6 20 3 67 -9 56 -18 -17 -4 -30 -3 -52 3 -56 13 -7
43 -212 32 -223 -4 -4 -18 3 -30 15 -21 19 -28 20 -54 10 -17 -6 -33 -10 -35
-8 -7 8 18 285 33 363 9 43 20 110 25 150 13 96 67 211 115 244 53 36 46 72
-10 49z"/>
<path d="M5090 5068 c0 -22 5 -26 35 -30 27 -3 34 -1 30 10 -3 7 -5 16 -5 18
0 2 -8 4 -18 4 -10 0 -23 5 -30 12 -9 9 -12 6 -12 -14z"/>
<path d="M3820 4950 l0 -110 86 0 c70 0 84 3 76 13 -6 7 -12 49 -14 92 l-3 80
-40 1 c-22 1 -45 -3 -51 -7 -7 -6 -16 1 -24 16 -7 14 -17 25 -22 25 -4 0 -8
-49 -8 -110z m50 14 c0 -8 -5 -12 -10 -9 -6 4 -8 11 -5 16 9 14 15 11 15 -7z"/>
<path d="M2024 5019 c-26 -9 -68 -65 -59 -78 3 -5 0 -13 -6 -17 -7 -4 -9 -3
-5 4 9 15 -15 21 -39 9 -67 -32 -131 -160 -141 -280 -6 -68 -5 -78 21 -125 15
-28 42 -64 59 -81 l33 -32 15 38 c39 95 37 92 37 40 1 -34 -3 -49 -14 -53 -24
-9 -17 -24 10 -24 14 0 25 5 25 12 0 6 11 26 25 44 14 18 25 45 25 61 0 39 25
76 105 157 59 59 67 71 57 87 -16 25 6 38 24 14 11 -15 16 -16 29 -5 8 7 22
10 30 6 11 -4 15 1 15 16 0 17 -3 19 -12 10 -17 -17 -38 -15 -38 3 0 18 -5 18
-31 5 -14 -8 -19 -7 -19 1 0 7 -3 9 -7 6 -3 -4 -13 -1 -21 5 -12 10 -14 6 -12
-32 4 -64 2 -70 -18 -70 -25 0 -59 38 -67 75 -15 69 -15 68 -34 51 -34 -31
-44 25 -13 64 17 21 22 22 52 12 50 -18 51 -11 7 64 -9 16 -18 19 -33 13z
m-110 -107 c-29 -24 -70 -81 -82 -117 -6 -16 -11 -22 -11 -13 -1 9 3 28 9 42
11 31 78 106 94 106 6 0 2 -8 -10 -18z"/>
<path d="M7374 5020 c-50 -7 -111 -51 -120 -85 -10 -41 25 -88 76 -104 25 -7
59 -19 76 -27 18 -7 41 -10 52 -7 17 4 23 -1 28 -21 3 -15 4 -36 1 -48 -3 -12
1 -37 9 -57 12 -30 13 -37 1 -46 -27 -21 -28 -45 0 -71 14 -13 30 -24 34 -24
5 0 9 -5 9 -11 0 -6 17 -32 38 -58 65 -79 114 -156 118 -186 1 -11 14 -50 28
-88 34 -88 34 -152 1 -201 -14 -20 -25 -41 -25 -47 0 -6 20 -60 45 -120 25
-60 48 -128 51 -149 11 -65 -17 -120 -98 -195 -39 -36 -76 -65 -82 -65 -35 0
-115 127 -157 249 -23 65 -23 67 -4 51 13 -11 15 -7 15 29 0 28 6 47 20 61 26
26 22 25 -51 -5 -34 -15 -69 -23 -80 -20 -31 10 -22 -12 10 -23 33 -12 47 -42
32 -70 -14 -27 -72 -32 -362 -32 -203 0 -249 -3 -259 -14 -9 -12 0 -80 44
-328 31 -172 61 -346 67 -385 7 -40 17 -74 23 -74 30 -3 53 4 68 22 9 10 30
22 47 25 27 6 31 4 31 -15 0 -20 2 -20 23 -7 43 28 106 39 155 26 50 -12 57
-10 47 19 -4 15 -15 21 -35 21 -16 0 -31 4 -34 8 -2 4 -6 77 -7 162 l-2 155
-36 5 c-33 5 -36 8 -39 43 -3 29 1 38 15 43 10 3 27 11 38 17 12 7 99 14 225
18 319 9 332 13 405 124 74 111 84 157 56 258 -30 110 -29 121 14 124 l35 3 0
-191 c0 -192 -11 -276 -36 -286 -8 -3 -14 -10 -14 -16 0 -5 9 -2 19 7 37 34
43 96 47 490 2 209 7 383 11 387 5 4 16 9 26 11 17 3 16 7 -9 43 -15 22 -42
76 -60 120 -27 65 -44 89 -89 130 -47 42 -58 59 -69 105 -37 148 -75 261 -99
294 -23 32 -152 44 -273 26z m-296 -1706 c-3 -14 -5 -12 -10 9 -3 19 -2 25 4
19 6 -6 8 -18 6 -28z m-1 -56 c-3 -8 -6 -5 -6 6 -1 11 2 17 5 13 3 -3 4 -12 1
-19z"/>
<path d="M2147 5004 c-3 -3 1 -21 9 -39 8 -19 14 -54 15 -77 0 -33 2 -38 9
-23 15 34 11 83 -8 115 -10 16 -21 27 -25 24z"/>
<path d="M4082 4915 c0 -16 2 -22 5 -12 2 9 2 23 0 30 -3 6 -5 -1 -5 -18z"/>
<path d="M4927 4850 c-20 -4 -41 -10 -45 -14 -8 -9 63 3 93 15 24 9 4 9 -48
-1z"/>
<path d="M2282 4503 c-6 -16 -18 -52 -26 -81 -14 -50 -14 -54 6 -89 22 -36 22
-36 29 -12 4 13 15 51 24 84 10 33 24 67 31 76 8 8 14 18 14 21 0 5 -55 28
-65 28 -2 0 -7 -12 -13 -27z"/>
<path d="M3599 4433 c-1 -5 -1 -11 -1 -14 1 -4 -18 -19 -42 -34 -56 -35 -73
-64 -56 -95 12 -23 13 -23 56 24 39 43 47 47 74 41 41 -9 49 14 19 54 -21 29
-47 41 -50 24z"/>
<path d="M2185 4390 c10 -11 20 -20 23 -20 3 0 -3 9 -13 20 -10 11 -20 20 -23
20 -3 0 3 -9 13 -20z"/>
<path d="M1904 4334 c-10 -16 -24 -33 -31 -37 -34 -21 -44 -66 -38 -160 6 -86
5 -97 -24 -177 -20 -53 -29 -94 -26 -110 3 -14 -4 -55 -15 -90 -11 -36 -27
-103 -36 -149 -13 -77 -13 -89 2 -137 14 -45 20 -53 46 -58 17 -3 151 -6 299
-6 l268 0 11 -41 c6 -22 14 -47 17 -55 4 -11 -9 -14 -73 -15 -53 0 -72 -3 -58
-9 28 -11 277 -35 295 -28 12 5 129 346 129 377 0 7 -65 11 -197 12 -311 2
-345 9 -329 72 8 35 48 45 163 39 99 -5 95 -7 107 49 5 25 5 26 -167 68 -221
56 -240 67 -201 126 18 28 21 89 5 109 -6 7 -19 38 -27 67 -13 45 -64 136 -95
173 -4 4 -15 -5 -25 -20z"/>
<path d="M2221 4340 c14 -31 19 -36 19 -24 0 6 -7 19 -16 30 -14 18 -14 18 -3
-6z"/>
<path d="M2157 4200 c-3 -8 -10 -44 -16 -80 -7 -36 -14 -77 -17 -92 -7 -30 -5
-30 117 -43 80 -9 82 11 10 106 -31 41 -63 86 -73 99 -12 19 -17 22 -21 10z"/>
<path d="M6387 4112 c-10 -10 -17 -22 -17 -25 0 -12 18 -7 23 6 2 7 3 6 3 -3
-1 -8 -9 -15 -19 -15 -9 0 -33 -23 -53 -50 -65 -91 -68 -85 42 -85 l97 0 -23
25 c-13 14 -21 25 -17 25 3 0 1 19 -6 43 -7 23 -12 54 -11 70 1 32 2 32 -19 9z"/>
<path d="M7156 4051 c-37 -47 -43 -66 -37 -130 1 -5 19 -2 41 6 l40 16 0 79
c0 43 -1 78 -3 78 -1 0 -20 -22 -41 -49z"/>
<path d="M2468 3913 c7 -3 16 -2 19 1 4 3 -2 6 -13 5 -11 0 -14 -3 -6 -6z"/>
<path d="M3728 3863 c78 -2 206 -2 285 0 78 1 14 3 -143 3 -157 0 -221 -2
-142 -3z"/>
<path d="M6670 3846 c0 -9 7 -16 15 -16 22 0 19 -47 -2 -53 -11 -3 -7 -5 10
-6 27 -1 28 1 25 42 -2 35 -7 43 -25 45 -16 2 -23 -2 -23 -12z"/>
<path d="M2813 3634 c-4 -12 -14 -14 -42 -9 l-36 6 -60 -203 c-33 -112 -59
-214 -57 -228 2 -14 12 -60 22 -104 13 -55 16 -85 9 -103 -12 -32 -13 -30 15
-37 26 -6 36 -30 36 -93 0 -61 -7 -73 -46 -73 -42 0 -49 -15 -56 -117 l-5 -72
58 -7 c57 -6 59 -8 59 -35 l0 -29 -142 -1 c-79 -1 -154 -5 -168 -9 -14 -5 73
-8 203 -9 l227 -1 0 36 c0 23 4 33 11 28 8 -4 9 3 5 23 -7 29 -6 30 102 81 60
29 114 52 120 52 24 0 20 23 -25 137 l-46 118 -1 182 c-1 101 -5 183 -9 183
-5 0 -5 5 -2 10 4 6 10 8 15 5 4 -3 20 44 34 105 28 119 30 132 18 112 -14
-21 -42 -3 -42 28 0 25 -3 28 -52 34 -92 10 -138 8 -145 -10z m-76 -986 c-3
-7 -5 -2 -5 12 0 14 2 19 5 13 2 -7 2 -19 0 -25z"/>
<path d="M3137 3643 c-2 -5 -1 -60 4 -123 4 -63 11 -204 15 -313 6 -165 4
-201 -7 -208 -14 -8 -19 -93 -6 -105 10 -10 271 -4 281 6 7 7 5 10 -5 10 -9 0
-24 18 -34 39 -9 21 -27 43 -39 48 l-21 10 23 7 c21 7 22 12 24 142 3 217 5
248 18 303 17 72 -3 169 -38 182 -28 11 -209 12 -215 2z"/>
<path d="M5410 3593 c0 -32 7 -98 14 -148 8 -49 24 -170 36 -269 18 -148 19
-181 8 -192 -8 -9 -12 -31 -10 -63 4 -45 6 -49 33 -55 27 -5 42 -26 19 -26 -5
0 -10 -19 -10 -43 0 -39 3 -44 32 -55 25 -9 30 -14 20 -24 -9 -9 -15 -9 -24 0
-7 7 -20 12 -30 12 -20 0 -24 -20 -7 -37 8 -8 7 -13 -1 -18 -6 -4 -17 -2 -23
4 -14 14 -40 14 -31 0 9 -16 -18 -30 -33 -17 -15 12 -14 14 -17 -34 -2 -30 1
-38 18 -42 29 -8 283 -7 341 1 l48 6 -7 101 c-3 56 -9 113 -12 127 l-6 26
-103 -4 c-62 -2 -106 1 -110 7 -3 6 0 10 7 10 61 2 218 19 227 24 6 4 11 31
11 60 0 41 -4 57 -19 67 -17 12 -21 42 -37 249 -11 129 -18 270 -17 313 l2 77
-160 0 -159 0 0 -57z"/>
<path d="M5790 3643 c0 -17 30 -104 58 -169 16 -38 72 -141 124 -230 63 -107
97 -174 100 -202 7 -50 41 -100 74 -108 19 -5 27 -17 36 -50 12 -42 14 -44 48
-43 19 1 59 4 89 7 l53 7 4 57 c5 62 -5 77 -35 56 -14 -10 -17 -18 -10 -28 16
-26 10 -29 -21 -12 -29 16 -39 32 -21 32 5 0 28 19 51 42 46 46 46 54 15 138
-18 49 -53 95 -40 53 14 -47 -13 -20 -50 50 -21 39 -46 86 -55 102 -78 140
-119 227 -125 263 l-7 42 -144 0 c-79 0 -144 -3 -144 -7z"/>
<path d="M6697 3485 c-23 -70 -37 -199 -37 -335 0 -81 -4 -121 -14 -135 -17
-26 -26 -73 -19 -107 7 -35 46 -50 136 -52 l69 -3 -6 31 c-4 17 -29 166 -56
331 -28 165 -52 305 -54 310 -1 6 -10 -12 -19 -40z"/>
<path d="M7478 2953 c-60 -3 -88 -8 -88 -16 -1 -7 -7 -48 -15 -92 -8 -44 -15
-108 -15 -142 l0 -63 95 0 c88 0 98 -2 120 -25 14 -13 25 -31 25 -40 0 -11 11
-15 48 -15 l47 0 2 194 2 194 -31 6 c-17 3 -47 5 -67 4 -20 -1 -75 -4 -123 -5z"/>
<path d="M6675 2830 c3 -5 8 -10 11 -10 2 0 4 5 4 10 0 6 -5 10 -11 10 -5 0
-7 -4 -4 -10z"/>
<path d="M6275 2821 c-66 -7 -85 -15 -85 -37 0 -10 6 -13 18 -10 9 3 50 7 89
8 40 2 73 6 73 10 0 3 3 13 6 22 7 17 5 18 -101 7z"/>
<path d="M3283 2754 c-22 -22 -33 -25 -77 -22 -41 2 -51 0 -54 -14 -5 -23 46
-32 83 -14 17 8 62 17 101 21 57 5 73 4 83 -9 8 -9 18 -16 24 -16 6 0 -7 18
-28 40 -48 49 -92 54 -132 14z"/>
<path d="M6243 2751 c-91 -11 -81 -26 15 -23 102 3 124 8 102 22 -16 10 -37
11 -117 1z"/>
<path d="M6687 2721 c-4 -17 -3 -21 5 -13 5 5 8 16 6 23 -3 8 -7 3 -11 -10z"/>
<path d="M6580 2720 c0 -5 7 -7 16 -3 9 3 29 -5 47 -18 26 -19 29 -19 17 -3
-8 10 -19 22 -25 26 -15 11 -55 10 -55 -2z"/>
<path d="M6402 2698 c-17 -8 -22 -19 -20 -37 2 -21 -2 -27 -22 -29 -59 -6 -72
-13 -86 -48 -8 -19 -12 -39 -9 -45 4 -6 -523 -8 -1482 -7 -1244 3 -1492 5
-1512 17 -24 13 -24 14 -5 28 17 12 21 11 37 -9 18 -21 27 -22 170 -26 128 -3
155 -1 172 12 19 15 19 17 3 30 -10 7 -18 20 -18 28 0 8 -13 27 -30 43 -26 24
-36 28 -89 27 -51 -1 -81 -10 -193 -60 -73 -33 -148 -63 -167 -67 -27 -6 -81
-43 -69 -48 1 -1 761 0 1688 3 1451 4 1681 7 1658 19 -15 8 -25 18 -22 23 4 5
-3 16 -15 24 -12 8 -21 21 -21 28 0 16 48 51 82 59 22 6 30 3 44 -18 20 -31
31 -26 14 6 -10 18 -9 23 4 31 9 5 14 13 11 19 -8 12 -95 10 -123 -3z"/>
<path d="M6173 2693 c-32 -12 -8 -19 45 -11 31 4 74 5 95 2 23 -4 37 -2 37 5
0 11 -152 15 -177 4z"/>
<path d="M6561 2671 c13 -11 26 -18 28 -15 7 7 -21 34 -36 34 -10 0 -8 -6 8
-19z"/>
<path d="M1440 2562 c0 -26 5 -53 12 -60 15 -15 204 -17 213 -2 4 6 -11 10
-38 10 -34 0 -48 5 -65 25 -12 14 -30 25 -41 25 -10 0 -27 11 -37 25 -29 39
-44 32 -44 -23z"/>
<path d="M5840 2570 c-33 -7 -32 -7 16 -9 28 0 99 -4 157 -8 95 -5 107 -4 107
10 0 15 -15 16 -122 15 -68 -1 -139 -4 -158 -8z"/>
<path d="M5230 2550 c8 -5 38 -9 65 -9 44 1 46 2 20 9 -46 12 -103 12 -85 0z"/>
</g>
</svg>
